<svg xmlns="http://www.w3.org/2000/svg" xmlns:xlink="http://www.w3.org/1999/xlink" width="500" zoomAndPan="magnify" viewBox="0 0 375 374.999991" height="500" preserveAspectRatio="xMidYMid meet" version="1.0"><defs><g/><clipPath id="48348a7456"><path d="M 328.171875 68.273438 L 345.789062 68.273438 L 345.789062 299.523438 L 328.171875 299.523438 Z M 328.171875 68.273438 " clip-rule="nonzero"/></clipPath></defs><g clip-path="url(#48348a7456)"><path fill="#ffffff" d="M 328.171875 68.273438 L 345.789062 68.273438 L 345.789062 299.507812 L 328.171875 299.507812 Z M 328.171875 68.273438 " fill-opacity="1" fill-rule="nonzero"/></g><g fill="#ffffff" fill-opacity="1"><g transform="translate(0.0000045, 271.379436)"><g><path d="M 118.4375 -121.5 C 118.4375 -130.601562 116.648438 -137.816406 113.078125 -143.140625 C 109.503906 -148.460938 104.613281 -152.289062 98.40625 -154.625 C 92.195312 -156.96875 85.09375 -158.140625 77.09375 -158.140625 L 51.6875 -158.140625 L 51.6875 -83.09375 L 76.203125 -83.09375 C 84.453125 -83.09375 91.722656 -84.21875 98.015625 -86.46875 C 104.316406 -88.726562 109.296875 -92.644531 112.953125 -98.21875 C 116.609375 -103.789062 118.4375 -111.550781 118.4375 -121.5 Z M 142.1875 -121.765625 C 142.1875 -108.066406 139.269531 -97.085938 133.4375 -88.828125 C 127.613281 -80.578125 119.59375 -74.578125 109.375 -70.828125 C 99.164062 -67.085938 87.425781 -65.21875 74.15625 -65.21875 L 51.6875 -65.21875 L 51.6875 0 L 29.484375 0 L 29.484375 -175.75 L 74.40625 -175.75 C 95.34375 -175.75 111.875 -171.34375 124 -162.53125 C 136.125 -153.726562 142.1875 -140.140625 142.1875 -121.765625 Z M 142.1875 -121.765625 "/></g></g></g><g fill="#ffffff" fill-opacity="1"><g transform="translate(153.158408, 271.379436)"><g><path d="M 135.421875 -175.75 L 145.375 0 L 124.0625 0 L 118.578125 -91.765625 C 118.316406 -97.972656 118.054688 -104.269531 117.796875 -110.65625 C 117.546875 -117.039062 117.378906 -123.164062 117.296875 -129.03125 C 117.210938 -134.90625 117.171875 -140.140625 117.171875 -144.734375 C 117.171875 -149.328125 117.171875 -152.898438 117.171875 -155.453125 L 87.5625 -31.53125 L 65.34375 -31.53125 L 33.5625 -155.453125 C 33.644531 -152.984375 33.726562 -149.34375 33.8125 -144.53125 C 33.90625 -139.726562 33.972656 -134.304688 34.015625 -128.265625 C 34.054688 -122.222656 34.007812 -116.03125 33.875 -109.6875 C 33.75 -103.351562 33.5625 -97.460938 33.3125 -92.015625 L 28.59375 0 L 7.78125 0 L 17.734375 -175.75 L 48.625 -175.75 L 77.09375 -55.390625 L 104.28125 -175.75 Z M 135.421875 -175.75 "/></g></g></g></svg>